<svg width="428" height="79" viewBox="0 0 428 79" fill="none" xmlns="http://www.w3.org/2000/svg">
<rect width="428" height="79" rx="20" fill="black" fill-opacity="0.8"/>
<path d="M118.008 50.992C118.936 50.992 119.68 50.752 120.24 50.272C120.816 49.792 121.104 49.128 121.104 48.28C121.104 47.592 120.928 47.008 120.576 46.528C120.224 46.048 119.784 45.656 119.256 45.352C118.744 45.048 118.04 44.696 117.144 44.296C116.12 43.832 115.296 43.408 114.672 43.024C114.064 42.64 113.544 42.128 113.112 41.488C112.68 40.848 112.464 40.048 112.464 39.088C112.464 38.272 112.656 37.512 113.04 36.808C113.44 36.088 114.032 35.512 114.816 35.08C115.6 34.648 116.56 34.432 117.696 34.432C118.736 34.432 119.664 34.584 120.48 34.888C121.312 35.176 121.952 35.592 122.4 36.136C122.864 36.664 123.096 37.272 123.096 37.96C123.096 38.776 122.848 39.448 122.352 39.976C121.872 40.504 121.264 40.768 120.528 40.768C120.192 40.768 120.024 40.672 120.024 40.48C120.024 40.432 120.088 40.296 120.216 40.072C120.36 39.848 120.48 39.6 120.576 39.328C120.688 39.04 120.744 38.696 120.744 38.296C120.744 37.544 120.464 36.936 119.904 36.472C119.344 36.008 118.608 35.776 117.696 35.776C116.752 35.776 116.024 36.048 115.512 36.592C115 37.12 114.744 37.768 114.744 38.536C114.744 39.128 114.912 39.64 115.248 40.072C115.584 40.504 116 40.864 116.496 41.152C116.992 41.44 117.68 41.784 118.56 42.184C119.616 42.648 120.472 43.088 121.128 43.504C121.8 43.904 122.368 44.448 122.832 45.136C123.296 45.808 123.528 46.648 123.528 47.656C123.528 49.08 123.048 50.216 122.088 51.064C121.144 51.912 119.784 52.336 118.008 52.336C116.856 52.336 115.832 52.176 114.936 51.856C114.04 51.52 113.336 51.064 112.824 50.488C112.328 49.896 112.08 49.224 112.08 48.472C112.08 47.656 112.336 46.984 112.848 46.456C113.376 45.928 114.032 45.664 114.816 45.664C114.992 45.664 115.12 45.696 115.2 45.76C115.28 45.808 115.32 45.872 115.32 45.952C115.32 46 115.248 46.136 115.104 46.36C114.96 46.568 114.832 46.816 114.72 47.104C114.608 47.392 114.552 47.736 114.552 48.136C114.552 48.984 114.872 49.672 115.512 50.2C116.152 50.728 116.984 50.992 118.008 50.992ZM134.358 49.792C133.702 50.72 133.03 51.376 132.342 51.76C131.654 52.144 130.91 52.336 130.11 52.336C129.342 52.336 128.63 52.12 127.974 51.688C127.318 51.24 126.79 50.576 126.39 49.696C126.006 48.816 125.814 47.752 125.814 46.504C125.814 45.128 126.062 43.936 126.558 42.928C127.07 41.904 127.79 41.12 128.718 40.576C129.662 40.032 130.766 39.76 132.03 39.76C132.654 39.76 133.534 39.864 134.67 40.072C135.63 40.232 136.35 40.328 136.83 40.36L137.094 40.672L136.806 41.104C136.694 41.264 136.614 41.416 136.566 41.56C136.518 41.688 136.494 41.848 136.494 42.04V49.888C136.494 50.384 136.734 50.632 137.214 50.632C137.614 50.632 138.014 50.488 138.414 50.2L138.87 50.824C138.454 51.288 138.006 51.656 137.526 51.928C137.046 52.2 136.606 52.336 136.206 52.336C135.55 52.336 135.078 52.136 134.79 51.736C134.502 51.336 134.358 50.688 134.358 49.792ZM128.334 46.048C128.334 47.568 128.59 48.688 129.102 49.408C129.63 50.128 130.286 50.488 131.07 50.488C131.71 50.488 132.31 50.312 132.87 49.96C133.43 49.592 133.926 49.04 134.358 48.304V41.824C133.622 41.328 132.838 41.08 132.006 41.08C130.838 41.08 129.934 41.52 129.294 42.4C128.654 43.264 128.334 44.48 128.334 46.048ZM145.915 50.776C146.907 50.776 147.659 50.208 148.171 49.072C148.699 47.936 148.963 46.56 148.963 44.944C148.963 44.176 148.875 43.432 148.699 42.712C148.523 41.992 148.259 41.352 147.907 40.792L147.667 40.408L147.955 40.096L150.811 39.76C150.891 40.752 150.931 41.6 150.931 42.304C150.931 44.432 150.691 46.256 150.211 47.776C149.731 49.28 149.083 50.416 148.267 51.184C147.467 51.952 146.595 52.336 145.651 52.336C144.819 52.336 144.147 52.184 143.635 51.88C143.139 51.56 142.739 51.056 142.435 50.368C142.131 49.664 141.891 48.688 141.715 47.44L140.971 42.352C140.939 42.144 140.891 42.008 140.827 41.944C140.763 41.864 140.651 41.824 140.491 41.824H139.435L139.219 41.2C139.635 40.784 140.131 40.44 140.707 40.168C141.283 39.896 141.795 39.76 142.243 39.76C142.675 39.76 142.931 40.016 143.011 40.528L144.091 48.016C144.235 49.008 144.443 49.72 144.715 50.152C144.987 50.568 145.387 50.776 145.915 50.776ZM163.836 50.2C163.244 50.888 162.54 51.416 161.724 51.784C160.908 52.152 160.028 52.336 159.084 52.336C157.98 52.336 157.012 52.08 156.18 51.568C155.348 51.056 154.7 50.336 154.236 49.408C153.788 48.48 153.564 47.408 153.564 46.192C153.564 44.912 153.82 43.792 154.332 42.832C154.844 41.856 155.564 41.104 156.492 40.576C157.436 40.032 158.532 39.76 159.78 39.76C160.66 39.76 161.404 39.928 162.012 40.264C162.636 40.584 163.1 41.016 163.404 41.56C163.708 42.088 163.86 42.664 163.86 43.288C163.86 43.96 163.676 44.608 163.308 45.232C162.956 45.856 162.436 46.368 161.748 46.768C161.06 47.152 160.236 47.344 159.276 47.344C158.764 47.344 158.196 47.248 157.572 47.056C156.948 46.864 156.636 46.584 156.636 46.216C156.636 46.088 156.668 45.968 156.732 45.856C156.812 45.744 156.9 45.688 156.996 45.688C157.044 45.688 157.204 45.744 157.476 45.856C157.748 45.952 158.1 46 158.532 46C159.492 46 160.236 45.728 160.764 45.184C161.308 44.64 161.58 44 161.58 43.264C161.58 42.64 161.38 42.104 160.98 41.656C160.58 41.192 160.02 40.96 159.3 40.96C158.276 40.96 157.476 41.416 156.9 42.328C156.324 43.224 156.036 44.512 156.036 46.192C156.036 47.616 156.34 48.736 156.948 49.552C157.556 50.352 158.436 50.752 159.588 50.752C160.996 50.752 162.164 50.296 163.092 49.384C163.156 49.32 163.228 49.288 163.308 49.288C163.436 49.288 163.572 49.368 163.716 49.528C163.86 49.672 163.932 49.824 163.932 49.984C163.932 50.064 163.9 50.136 163.836 50.2ZM176.948 49.888C176.948 50.384 177.188 50.632 177.668 50.632C178.068 50.632 178.468 50.488 178.868 50.2L179.324 50.824C178.908 51.288 178.46 51.656 177.98 51.928C177.5 52.2 177.06 52.336 176.66 52.336C176.004 52.336 175.532 52.136 175.244 51.736C174.956 51.336 174.812 50.688 174.812 49.792C174.156 50.72 173.484 51.376 172.796 51.76C172.108 52.144 171.364 52.336 170.564 52.336C169.796 52.336 169.084 52.12 168.428 51.688C167.772 51.24 167.244 50.576 166.844 49.696C166.46 48.816 166.268 47.752 166.268 46.504C166.268 45.128 166.516 43.936 167.012 42.928C167.524 41.904 168.244 41.12 169.172 40.576C170.116 40.032 171.22 39.76 172.484 39.76C173.316 39.76 174.076 39.864 174.764 40.072V35.824C174.764 35.632 174.724 35.496 174.644 35.416C174.58 35.336 174.46 35.296 174.284 35.296H173.228L173.012 34.672C173.476 34.256 174.004 33.912 174.596 33.64C175.204 33.368 175.732 33.232 176.18 33.232C176.404 33.232 176.588 33.304 176.732 33.448C176.876 33.592 176.948 33.776 176.948 34V49.888ZM168.788 46.048C168.788 47.568 169.044 48.688 169.556 49.408C170.084 50.128 170.74 50.488 171.523 50.488C172.164 50.488 172.764 50.312 173.324 49.96C173.884 49.592 174.38 49.04 174.812 48.304V41.824C174.076 41.328 173.292 41.08 172.46 41.08C171.292 41.08 170.388 41.52 169.748 42.4C169.108 43.264 168.788 44.48 168.788 46.048Z" fill="white"/>
<circle cx="59" cy="43" r="25" fill="#03C22D"/>
<path d="M53.9 54.7L42.7 43.5L44.85 41.35L53.9 50.4L73.0999 31.2L75.25 33.35L53.9 54.7Z" fill="white"/>
</svg>
