<svg width="30" height="19" viewBox="0 0 30 19" fill="none" xmlns="http://www.w3.org/2000/svg">
<path d="M3.96307 18H0.588068L6.73295 0.545454H10.6364L16.7898 18H13.4148L8.75284 4.125H8.61648L3.96307 18ZM4.07386 11.1562H13.2784V13.696H4.07386V11.1562ZM22.7195 18.2642C21.8899 18.2642 21.1428 18.1165 20.478 17.821C19.8189 17.5199 19.2962 17.0767 18.9098 16.4915C18.5291 15.9062 18.3388 15.1847 18.3388 14.3267C18.3388 13.5881 18.4751 12.9773 18.7479 12.4943C19.0206 12.0114 19.3928 11.625 19.8643 11.3352C20.3359 11.0455 20.8672 10.8267 21.4581 10.679C22.0547 10.5256 22.6712 10.4148 23.3075 10.3466C24.0746 10.267 24.6967 10.196 25.174 10.1335C25.6513 10.0653 25.9979 9.96307 26.2138 9.8267C26.4354 9.68466 26.5462 9.46591 26.5462 9.17045V9.11932C26.5462 8.47727 26.3558 7.98011 25.9751 7.62784C25.5945 7.27557 25.0462 7.09943 24.3303 7.09943C23.5746 7.09943 22.9751 7.2642 22.532 7.59375C22.0945 7.9233 21.799 8.3125 21.6456 8.76136L18.7649 8.35227C18.9922 7.55682 19.3672 6.89205 19.8899 6.35795C20.4126 5.81818 21.0518 5.41477 21.8075 5.14773C22.5632 4.875 23.3984 4.73864 24.3132 4.73864C24.9439 4.73864 25.5717 4.8125 26.1967 4.96023C26.8217 5.10795 27.3928 5.35227 27.9098 5.69318C28.4268 6.02841 28.8416 6.4858 29.1541 7.06534C29.4723 7.64489 29.6314 8.36932 29.6314 9.23864V18H26.6655V16.2017H26.5632C26.3757 16.5653 26.1115 16.9062 25.7706 17.2244C25.4354 17.5369 25.0121 17.7898 24.5007 17.983C23.995 18.1705 23.4013 18.2642 22.7195 18.2642ZM23.5206 15.9972C24.1399 15.9972 24.6768 15.875 25.1314 15.6307C25.5859 15.3807 25.9354 15.0511 26.1797 14.642C26.4297 14.233 26.5547 13.7869 26.5547 13.304V11.7614C26.4581 11.8409 26.2933 11.9148 26.0604 11.983C25.8331 12.0511 25.5774 12.1108 25.2933 12.1619C25.0092 12.2131 24.728 12.2585 24.4496 12.2983C24.1712 12.3381 23.9297 12.3722 23.7251 12.4006C23.2649 12.4631 22.853 12.5653 22.4893 12.7074C22.1257 12.8494 21.8388 13.0483 21.6286 13.304C21.4183 13.554 21.3132 13.8778 21.3132 14.2756C21.3132 14.8438 21.5206 15.2727 21.9354 15.5625C22.3501 15.8523 22.8786 15.9972 23.5206 15.9972Z" fill="black"/>
</svg>
