<svg width="35" height="38" viewBox="0 0 35 38" fill="none" xmlns="http://www.w3.org/2000/svg">
<path d="M17.8812 35.5C15.4312 35.5 13.1417 35.0333 11.0125 34.1C8.88333 33.1667 7.01667 31.9052 5.4125 30.3156C3.80833 28.726 2.54687 26.8594 1.62812 24.7156C0.709375 22.5719 0.25 20.275 0.25 17.825C0.25 13.5667 1.60625 9.81146 4.31875 6.55938C7.03125 3.30729 10.4875 1.2875 14.6875 0.5C14.1625 3.35833 14.3229 6.16563 15.1687 8.92188C16.0146 11.6781 17.4729 14.0917 19.5437 16.1625C19.9521 16.5708 20.375 16.9573 20.8125 17.3219C21.25 17.6865 21.7167 18.0292 22.2125 18.35C21.775 18.5542 21.3594 18.7802 20.9656 19.0281C20.5719 19.276 20.1854 19.5458 19.8062 19.8375C19.4271 19.5458 19.0552 19.2469 18.6906 18.9406C18.326 18.6344 17.9833 18.3208 17.6625 18C15.825 16.1625 14.425 14.0406 13.4625 11.6344C12.5 9.22813 11.9021 6.72708 11.6687 4.13125C9.10208 5.53125 6.99479 7.43438 5.34687 9.84062C3.69896 12.2469 2.875 14.9083 2.875 17.825C2.875 21.7333 4.16562 25.1021 6.74687 27.9312C9.32812 30.7604 12.5292 32.3792 16.35 32.7875C16.5542 33.2833 16.7802 33.7573 17.0281 34.2094C17.276 34.6615 17.5604 35.0917 17.8812 35.5ZM25.45 37.25L25.2312 35.15C24.6479 34.975 24.05 34.7198 23.4375 34.3844C22.825 34.049 22.3292 33.6771 21.95 33.2687L20.1125 34.1437L18.5812 31.7812L20.2437 30.4688C20.0979 29.7979 20.025 29.1927 20.025 28.6531C20.025 28.1135 20.0979 27.5083 20.2437 26.8375L18.5812 25.525L20.1125 23.1187L21.95 23.9937C22.3292 23.6438 22.825 23.2937 23.4375 22.9438C24.05 22.5938 24.6479 22.3312 25.2312 22.1562L25.45 20.0125H28.075L28.3375 22.1562C28.9208 22.3312 29.5187 22.5938 30.1312 22.9438C30.7437 23.2937 31.2396 23.6438 31.6187 23.9937L33.4562 23.1187L34.9875 25.525L33.325 26.8375C33.4708 27.5083 33.5437 28.1135 33.5437 28.6531C33.5437 29.1927 33.4708 29.7979 33.325 30.4688L34.9875 31.7812L33.4562 34.1437L31.6187 33.2687C31.2396 33.6771 30.7437 34.049 30.1312 34.3844C29.5187 34.7198 28.9208 34.975 28.3375 35.15L28.075 37.25H25.45ZM26.7625 33.0938C28.0458 33.0938 29.1104 32.6708 29.9562 31.825C30.8021 30.9792 31.225 29.9146 31.225 28.6313C31.225 27.3479 30.8021 26.2833 29.9562 25.4375C29.1104 24.5917 28.0458 24.1687 26.7625 24.1687C25.4792 24.1687 24.4146 24.5917 23.5688 25.4375C22.7229 26.2833 22.3 27.3479 22.3 28.6313C22.3 29.9146 22.7229 30.9792 23.5688 31.825C24.4146 32.6708 25.4792 33.0938 26.7625 33.0938Z" fill="black"/>
</svg>
