<svg width="30" height="30" viewBox="0 0 30 30" fill="none" xmlns="http://www.w3.org/2000/svg">
<path d="M15 18.6833L16.9833 14.1499L21.5167 12.1666L16.9833 10.1833L15 5.64992L13.0167 10.1833L8.48334 12.1666L13.0167 14.1499L15 18.6833ZM0.833336 29.1666V2.95825C0.833336 2.4152 1.04584 1.92527 1.47084 1.48846C1.89584 1.05165 2.39167 0.833252 2.95834 0.833252H27.0417C27.5847 0.833252 28.0747 1.05165 28.5115 1.48846C28.9483 1.92527 29.1667 2.4152 29.1667 2.95825V21.3749C29.1667 21.918 28.9483 22.4079 28.5115 22.8447C28.0747 23.2815 27.5847 23.4999 27.0417 23.4999H6.5L0.833336 29.1666ZM2.95834 24.0312L5.61459 21.3749H27.0417V2.95825H2.95834V24.0312ZM2.95834 2.95825V24.0312V2.95825Z" fill="black"/>
</svg>
