<svg width="35" height="32" viewBox="0 0 35 32" fill="none" xmlns="http://www.w3.org/2000/svg">
<path d="M17.5 31.3122L15.7489 29.732C12.7309 26.9702 10.2395 24.5856 8.27496 22.5784C6.31038 20.5711 4.7444 18.7773 3.57704 17.1971C2.40968 15.6169 1.5911 14.1862 1.12131 12.9049C0.651522 11.6237 0.416626 10.3282 0.416626 9.01846C0.416626 6.45596 1.27791 4.31343 3.00048 2.59086C4.72305 0.868288 6.85135 0.00700378 9.38538 0.00700378C11.0083 0.00700378 12.5102 0.391379 13.8911 1.16013C15.272 1.92888 16.475 3.0393 17.5 4.49138C18.6958 2.95388 19.9628 1.82211 21.301 1.09607C22.6392 0.370024 24.077 0.00700378 25.6145 0.00700378C28.1486 0.00700378 30.2769 0.868288 31.9994 2.59086C33.722 4.31343 34.5833 6.45596 34.5833 9.01846C34.5833 10.3282 34.3484 11.6237 33.8786 12.9049C33.4088 14.1862 32.5902 15.6169 31.4229 17.1971C30.2555 18.7773 28.6895 20.5711 26.725 22.5784C24.7604 24.5856 22.2691 26.9702 19.251 29.732L17.5 31.3122ZM17.5 27.9383C20.3757 25.2903 22.746 23.0197 24.6109 21.1263C26.4758 19.2329 27.9564 17.5744 29.0526 16.1508C30.1487 14.7271 30.9175 13.4601 31.3588 12.3497C31.8001 11.2393 32.0208 10.1289 32.0208 9.01846C32.0208 7.1393 31.4229 5.59468 30.227 4.38461C29.0312 3.17454 27.4937 2.5695 25.6145 2.5695C24.1625 2.5695 22.81 3.01794 21.5573 3.91482C20.3045 4.81169 19.2937 6.07159 18.525 7.6945H16.4323C15.692 6.10006 14.6954 4.84728 13.4427 3.93617C12.1899 3.02506 10.8375 2.5695 9.38538 2.5695C7.50621 2.5695 5.96871 3.17454 4.77288 4.38461C3.57704 5.59468 2.97913 7.1393 2.97913 9.01846C2.97913 10.1289 3.19979 11.2464 3.64111 12.3711C4.08242 13.4957 4.85117 14.777 5.94736 16.2148C7.04354 17.6527 8.53121 19.3112 10.4104 21.1903C12.2895 23.0695 14.6527 25.3188 17.5 27.9383Z" fill="#17AEC6"/>
</svg>
