<svg width="20" height="49" viewBox="0 0 20 49" fill="none" xmlns="http://www.w3.org/2000/svg">
<path d="M5.33539 44.774L7.1996 43.6058L14.2072 13.0749L11.1747 12.3789L4.16718 42.9098L5.33539 44.774ZM18.4463 7.88118L9.62472 5.85642L10.2891 2.96184C10.4684 2.18076 10.9111 1.56897 11.6172 1.12647C12.3234 0.683969 13.067 0.552356 13.848 0.731632L16.8805 1.42764C17.6615 1.60692 18.2733 2.04962 18.7158 2.75577C19.1583 3.46191 19.2899 4.20552 19.1107 4.9866L18.4463 7.88118ZM17.7819 10.7758L9.80945 45.5108L4.38628 48.9092L0.987865 43.486L8.96034 8.751L17.7819 10.7758ZM12.6909 12.7269L11.1747 12.3789L14.2072 13.0749L12.6909 12.7269Z" fill="#17AEC6"/>
</svg>
