<svg width="38" height="33" viewBox="0 0 38 33" fill="none" xmlns="http://www.w3.org/2000/svg">
<path d="M21.75 32.4049C19.7375 32.4049 17.7834 32.0258 15.8875 31.2674C13.9917 30.5091 12.3438 29.4737 10.9438 28.1612L12.825 26.2799C13.9917 27.3591 15.3553 28.2122 16.9157 28.8393C18.4761 29.4664 20.0875 29.7799 21.75 29.7799C25.3959 29.7799 28.524 28.4747 31.1344 25.8643C33.7448 23.2539 35.05 20.1258 35.05 16.4799C35.05 12.8341 33.7448 9.70596 31.1344 7.09554C28.524 4.48513 25.3959 3.17992 21.75 3.17992C18.1042 3.17992 14.9761 4.48513 12.3657 7.09554C9.75526 9.70596 8.45005 12.8341 8.45005 16.4799V17.2674L11.5125 14.2049L13.35 16.0424L7.13755 22.2549L0.925049 16.0424L2.76255 14.2049L5.82505 17.2674V16.4799C5.82505 14.2633 6.24067 12.1924 7.07192 10.2674C7.90317 8.34242 9.04067 6.65804 10.4844 5.21429C11.9282 3.77055 13.6125 2.63304 15.5375 1.8018C17.4625 0.970545 19.5334 0.55492 21.75 0.55492C23.9667 0.55492 26.0375 0.970545 27.9625 1.8018C29.8875 2.63304 31.5719 3.77055 33.0157 5.21429C34.4594 6.65804 35.5969 8.34242 36.4282 10.2674C37.2594 12.1924 37.675 14.2633 37.675 16.4799C37.675 20.9133 36.1292 24.6758 33.0375 27.7674C29.9459 30.8591 26.1834 32.4049 21.75 32.4049ZM18.25 23.2612C17.8417 23.2612 17.4844 23.108 17.1782 22.8018C16.8719 22.4955 16.7188 22.1383 16.7188 21.7299V16.4799C16.7188 16.0716 16.8865 15.7143 17.2219 15.408C17.5573 15.1018 17.973 14.9487 18.4688 14.9487V12.9799C18.4688 12.0758 18.7896 11.3028 19.4313 10.6612C20.073 10.0195 20.8459 9.69867 21.75 9.69867C22.6542 9.69867 23.4271 10.0195 24.0688 10.6612C24.7105 11.3028 25.0313 12.0758 25.0313 12.9799V14.9487C25.5271 14.9487 25.9428 15.1018 26.2782 15.408C26.6136 15.7143 26.7813 16.0716 26.7813 16.4799V21.7299C26.7813 22.1383 26.6282 22.4955 26.3219 22.8018C26.0157 23.108 25.6584 23.2612 25.25 23.2612H18.25ZM19.7813 14.9487H23.7188V12.9799C23.7188 12.4258 23.5292 11.9591 23.15 11.5799C22.7709 11.2008 22.3042 11.0112 21.75 11.0112C21.1959 11.0112 20.7292 11.2008 20.35 11.5799C19.9709 11.9591 19.7813 12.4258 19.7813 12.9799V14.9487Z" fill="#17AEC6"/>
</svg>
