<svg width="32" height="32" viewBox="0 0 32 32" fill="none" xmlns="http://www.w3.org/2000/svg">
<path d="M16 15.4799C13.8 15.4799 12 14.7799 10.6 13.3799C9.2 11.9799 8.5 10.1799 8.5 7.97992C8.5 5.77992 9.2 3.97992 10.6 2.57992C12 1.17992 13.8 0.479919 16 0.479919C18.2 0.479919 20 1.17992 21.4 2.57992C22.8 3.97992 23.5 5.77992 23.5 7.97992C23.5 10.1799 22.8 11.9799 21.4 13.3799C20 14.7799 18.2 15.4799 16 15.4799ZM0 31.5299V26.8299C0 25.5633 0.316666 24.4799 0.95 23.5799C1.58333 22.6799 2.4 21.9966 3.4 21.5299C5.63333 20.5299 7.775 19.7799 9.825 19.2799C11.875 18.7799 13.9333 18.5299 16 18.5299C18.0667 18.5299 20.1167 18.7883 22.15 19.3049C24.1833 19.8216 26.3167 20.5633 28.55 21.5299C29.5833 21.9966 30.4167 22.6799 31.05 23.5799C31.6833 24.4799 32 25.5633 32 26.8299V31.5299H0ZM3 28.5299H29V26.8299C29 26.2966 28.8417 25.7883 28.525 25.3049C28.2083 24.8216 27.8167 24.4633 27.35 24.2299C25.2167 23.1966 23.2667 22.4883 21.5 22.1049C19.7333 21.7216 17.9 21.5299 16 21.5299C14.1 21.5299 12.25 21.7216 10.45 22.1049C8.65 22.4883 6.7 23.1966 4.6 24.2299C4.13333 24.4633 3.75 24.8216 3.45 25.3049C3.15 25.7883 3 26.2966 3 26.8299V28.5299ZM16 12.4799C17.3 12.4799 18.375 12.0549 19.225 11.2049C20.075 10.3549 20.5 9.27992 20.5 7.97992C20.5 6.67992 20.075 5.60492 19.225 4.75492C18.375 3.90492 17.3 3.47992 16 3.47992C14.7 3.47992 13.625 3.90492 12.775 4.75492C11.925 5.60492 11.5 6.67992 11.5 7.97992C11.5 9.27992 11.925 10.3549 12.775 11.2049C13.625 12.0549 14.7 12.4799 16 12.4799Z" fill="#17AEC6"/>
</svg>
