<svg width="44" height="32" viewBox="0 0 44 32" fill="none" xmlns="http://www.w3.org/2000/svg">
<path d="M26 11.3V8.9C27.1 8.43333 28.225 8.08333 29.375 7.85C30.525 7.61667 31.7333 7.5 33 7.5C33.8667 7.5 34.7167 7.56667 35.55 7.7C36.3833 7.83333 37.2 8 38 8.2V10.4C37.2 10.1 36.3917 9.875 35.575 9.725C34.7583 9.575 33.9 9.5 33 9.5C31.7333 9.5 30.5167 9.65833 29.35 9.975C28.1833 10.2917 27.0667 10.7333 26 11.3ZM26 22.3V19.85C27.1 19.3833 28.225 19.0417 29.375 18.825C30.525 18.6083 31.7333 18.5 33 18.5C33.8667 18.5 34.7167 18.5667 35.55 18.7C36.3833 18.8333 37.2 19 38 19.2V21.4C37.2 21.1 36.3917 20.875 35.575 20.725C34.7583 20.575 33.9 20.5 33 20.5C31.7333 20.5 30.5167 20.65 29.35 20.95C28.1833 21.25 27.0667 21.7 26 22.3ZM26 16.8V14.4C27.1 13.9333 28.225 13.5833 29.375 13.35C30.525 13.1167 31.7333 13 33 13C33.8667 13 34.7167 13.0667 35.55 13.2C36.3833 13.3333 37.2 13.5 38 13.7V15.9C37.2 15.6 36.3917 15.375 35.575 15.225C34.7583 15.075 33.9 15 33 15C31.7333 15 30.5167 15.1583 29.35 15.475C28.1833 15.7917 27.0667 16.2333 26 16.8ZM10.4 25C12.2 25 13.9417 25.2083 15.625 25.625C17.3083 26.0417 18.9667 26.6667 20.6 27.5V6.15C19.1 5.15 17.475 4.375 15.725 3.825C13.975 3.275 12.2 3 10.4 3C9.13333 3 7.89167 3.15833 6.675 3.475C5.45833 3.79167 4.23333 4.18333 3 4.65V26.35C4.03333 25.8833 5.20833 25.5417 6.525 25.325C7.84167 25.1083 9.13333 25 10.4 25ZM23.6 27.5C25.2667 26.6667 26.9 26.0417 28.5 25.625C30.1 25.2083 31.8 25 33.6 25C34.8667 25 36.175 25.1 37.525 25.3C38.875 25.5 40.0333 25.7667 41 26.1V4.65C39.8667 4.08333 38.6667 3.66667 37.4 3.4C36.1333 3.13333 34.8667 3 33.6 3C31.8 3 30.0583 3.275 28.375 3.825C26.6917 4.375 25.1 5.15 23.6 6.15V27.5ZM22.1 32C20.4 30.7333 18.55 29.7583 16.55 29.075C14.55 28.3917 12.5 28.05 10.4 28.05C9.16667 28.05 7.96667 28.2 6.8 28.5C5.63333 28.8 4.46667 29.1667 3.3 29.6C2.53333 29.9667 1.79167 29.9167 1.075 29.45C0.358333 28.9833 0 28.3167 0 27.45V4.3C0 3.8 0.116667 3.34167 0.35 2.925C0.583333 2.50833 0.933333 2.18333 1.4 1.95C2.8 1.28333 4.25833 0.791667 5.775 0.475C7.29167 0.158334 8.83333 0 10.4 0C12.5 0 14.5417 0.283334 16.525 0.85C18.5083 1.41667 20.3667 2.28333 22.1 3.45C23.8 2.28333 25.625 1.41667 27.575 0.85C29.525 0.283334 31.5333 0 33.6 0C35.1667 0 36.7 0.158334 38.2 0.475C39.7 0.791667 41.15 1.28333 42.55 1.95C43.0167 2.18333 43.375 2.50833 43.625 2.925C43.875 3.34167 44 3.8 44 4.3V27.45C44 28.3833 43.625 29.0917 42.875 29.575C42.125 30.0583 41.3833 30.0667 40.65 29.6C39.5167 29.1333 38.3667 28.7583 37.2 28.475C36.0333 28.1917 34.8333 28.05 33.6 28.05C31.5 28.05 29.4833 28.4 27.55 29.1C25.6167 29.8 23.8 30.7667 22.1 32Z" fill="black"/>
</svg>
